<svg version="1" xmlns="http://www.w3.org/2000/svg" width="682.667" height="682.667" viewBox="0 0 512.000000 512.000000"><path d="M208.3 38.7c-5 7.6-11.7 20.3-10.6 20.3.3 0 .1.6-.4 1.2-1.6 2.2-4.5 12.6-6.3 23.2-1.8 10.1-2.1 35.8-.5 39.8.6 1.6 2.1 1.8 11.1 1.8H212l-.7-3.2c-.9-4.4-.9-26 0-32.9 1-8.3 5.1-23.6 8-29.9 4.6-10.2-.2-9.2 46.3-9.2 22.5 0 42.3.1 44 .1l3.1.1-3.3 9.9c-1.8 5.4-3.6 11.2-3.9 12.7-2 11-2.5 14.6-3 19.8-.7 6.9-.9 19.9-.5 27.3l.4 5.3h21.4l-.5-12.8c-1.2-28.1 5.4-50.8 21.4-73.5l5.4-7.7H213.5l-5.2 7.7z"/><path d="M125 294v188h263V106l-22.2.2-22.3.3-.1 7c-.1 9.4-1.1 14.1-3.9 18.4-3.1 4.8-6.2 7.6-11 9.8-3.7 1.6-9.2 1.8-70.5 1.9-73.6.1-72.9.2-79.9-6.2-5.7-5.1-8.3-12-8.5-22.4l-.1-8.5-22.2-.3-22.3-.2v188zm225-112.2c.8.3.6 92-.2 92.8-.5.5-183 1-186.8.5-.4-.1-.5-87.1-.1-92.2.1-1.4 9.6-1.5 93.4-1.4 51.2.1 93.4.3 93.7.3zM219 322.3v9.3l-18.2-.1c-10.1-.1-18.6-.3-18.9-.4-.3 0-.5-4.2-.6-9.1v-9H219v9.3zm56.1-8.3v14.8l-.1 2.9-18.2-.2c-10.1-.1-18.5-.3-18.8-.4-.4-.1-.5-13.7-.1-17.4.1-1.1 37.1-.9 37.2.3zm56.4 8.2v9.3l-18.7.1H294V313h37.6l-.1 9.2zm-113.2 28.7c.4 0 .7 4.1.7 9.1v9l-7.2.1c-7.2 0-24.4 0-28.4-.1-1.9 0-2-.6-2.1-8.8 0-4.8.4-8.9.8-9.2.6-.5 33.5-.5 36.2-.1zm56.8 2.1c.1 2.8.1 10.2 0 14l-.1 2.5-18.2-.2c-10.1-.1-18.4-.6-18.7-1.2-.5-.7-.6-8.9-.2-16.1.1-1.4 2.7-1.6 18.6-1.5H275l.1 2.5zm56.5 6.8v9.2h-5.5c-14.2.1-23 .2-27.3.1l-4.8-.1v-8.8c0-4.9.2-9.1.4-9.3.3-.2 8.7-.4 18.8-.4h18.3l.1 9.3zM219 397.5v9.5l-18.7-.2-18.8-.3-.1-8.5c-.1-4.7 0-8.8.3-9.3.2-.4 8.7-.7 18.9-.7H219v9.5zm56.1-6.8c.1 3 .1 11.8 0 14.5-.1 1.7-1.7 1.8-18.8 1.8h-18.8l.1-7.8c.1-4.2.2-8.5.3-9.5.1-1.5 1.7-1.7 18.6-1.7H275l.1 2.7zm56.5 6.8v9.5H294v-19h37.5l.1 9.5zm-113.1 37.6v9.4H201c-9.6.1-18-.1-18.6-.3-.7-.2-1-3.4-.9-9 .1-4.8.3-8.9.3-9.2.1-.3 8.4-.5 18.4-.4h18.3v9.5zm56.6-6.6c.3 9.4.1 14.6-.5 15.3-.4.4-8.6.7-18.3.7-14.7 0-17.6-.2-18.2-1.5-.5-1.2-.6-9.8-.2-16.5.1-.6 7-1 18.6-1H275l.1 3zm56-2.6c.8.1.6 17.5-.2 18.1-.4.3-8.8.5-18.6.5h-17.8l-.3-9.2c-.3-8.9-.2-9.2 2-9.5 2-.3 33.2-.2 34.9.1z"/></svg>